<svg id="Layer_1" data-name="Layer 1" xmlns="http://www.w3.org/2000/svg" xmlns:xlink="http://www.w3.org/1999/xlink" viewBox="0 0 825 825"><defs><style>.cls-1{fill:none;}.cls-2{fill:#e1766c;}.cls-3{fill:url(#linear-gradient);}.cls-4{fill:url(#linear-gradient-2);}.cls-5{fill:url(#linear-gradient-3);}.cls-6{fill:url(#linear-gradient-4);}.cls-7{fill:url(#linear-gradient-5);}.cls-8{fill:url(#linear-gradient-6);}</style><linearGradient id="linear-gradient" x1="242.22" y1="423.81" x2="242.22" y2="657.26" gradientUnits="userSpaceOnUse"><stop offset="0" stop-color="#940029" stop-opacity="0.6"/><stop offset="1" stop-color="#e1766c" stop-opacity="0"/></linearGradient><linearGradient id="linear-gradient-2" x1="71.94" y1="121.22" x2="71.94" y2="686.08" xlink:href="#linear-gradient"/><linearGradient id="linear-gradient-3" x1="753.06" y1="121.22" x2="753.06" y2="686.08" xlink:href="#linear-gradient"/><linearGradient id="linear-gradient-4" x1="137.73" y1="755.97" x2="381.25" y2="750.21" xlink:href="#linear-gradient"/><linearGradient id="linear-gradient-5" x1="585.08" y1="420.61" x2="633.11" y2="808.7" gradientUnits="userSpaceOnUse"><stop offset="0" stop-color="#940029" stop-opacity="0.6"/><stop offset="0.53" stop-color="#e1766c" stop-opacity="0"/><stop offset="1" stop-color="#940029" stop-opacity="0.55"/></linearGradient><linearGradient id="linear-gradient-6" x1="492.97" y1="689.04" x2="353.12" y2="494.4" xlink:href="#linear-gradient"/></defs><polygon class="cls-1" points="412.5 302.63 538.07 408.08 538.07 408.08 412.5 302.63"/><polygon class="cls-1" points="286.93 408.08 412.5 302.63 286.93 408.08 286.93 408.08"/><path class="cls-2" d="M711.2,27.23H113.8A86.57,86.57,0,0,0,27.23,113.8V711.2a86.57,86.57,0,0,0,86.57,86.57H389.41A67.81,67.81,0,0,0,457.21,730V445.77l-89.44,41.69,0,220.89H116.65V116.65h591.7v591.7H627.49V389.77a50.15,50.15,0,0,0-17.9-38.41L412.5,185.88,215.41,351.36a50.17,50.17,0,0,0-17.89,38.41V635h89.41V408.08L412.5,302.63,538.07,408.08h0V745.7a52.07,52.07,0,0,0,52.07,52.07H711.2a86.57,86.57,0,0,0,86.57-86.57V113.8A86.57,86.57,0,0,0,711.2,27.23Z"/><path class="cls-3" d="M197.52,635h89.41V408.08l-43.74,36.73a128,128,0,0,0-45.67,98Z"/><path class="cls-4" d="M116.65,708.35V116.65h0a89.42,89.42,0,0,0-89.42,89.42V708.35Z"/><path class="cls-5" d="M797.77,708.35V206.07a89.41,89.41,0,0,0-89.42-89.42h0v591.7Z"/><path class="cls-6" d="M367.79,708.35H116.65a89.41,89.41,0,0,0,89.42,89.42H405.14Z"/><path class="cls-7" d="M627.49,708.35V542.81a128,128,0,0,0-45.68-98l-43.74-36.73V745.7a52.07,52.07,0,0,0,52.07,52.07h28.79a89.43,89.43,0,0,0,89.42-89.42Z"/><path class="cls-8" d="M367.79,708.35H398a59.28,59.28,0,0,0,59.28-59.29V445.77l-89.46,41.69Z"/></svg>